<svg id="visual" viewBox="0 0 900 600" width="900" height="600" xmlns="http://www.w3.org/2000/svg" xmlns:xlink="http://www.w3.org/1999/xlink" version="1.1"><rect x="0" y="0" width="900" height="600" fill="#ffffff"></rect><defs><linearGradient id="grad1_0" x1="33.3%" y1="100%" x2="100%" y2="0%"><stop offset="20%" stop-color="#ffffff" stop-opacity="1"></stop><stop offset="80%" stop-color="#ffffff" stop-opacity="1"></stop></linearGradient></defs><defs><linearGradient id="grad2_0" x1="0%" y1="100%" x2="66.7%" y2="0%"><stop offset="20%" stop-color="#ffffff" stop-opacity="1"></stop><stop offset="80%" stop-color="#ffffff" stop-opacity="1"></stop></linearGradient></defs><g transform="translate(900, 600)"><path d="M-324.5 0C-294.8 -36.1 -265.1 -72.2 -241.1 -99.9C-217.1 -127.5 -198.9 -146.7 -183.1 -183.1C-167.4 -219.6 -154.3 -273.4 -124.2 -299.8C-94.1 -326.2 -47 -325.4 0 -324.5L0 0Z" fill="#2b1b38"></path></g><g transform="translate(0, 0)"><path d="M324.5 0C313.2 41.2 302 82.4 283.6 117.5C265.3 152.6 239.9 181.5 213.5 213.5C187.2 245.6 159.9 280.8 124.2 299.8C88.4 318.8 44.2 321.7 0 324.5L0 0Z" fill="#2b1b38"></path></g></svg>