<svg id="visual" viewBox="0 0 900 600" width="900" height="600" xmlns="http://www.w3.org/2000/svg" xmlns:xlink="http://www.w3.org/1999/xlink" version="1.1"><rect x="0" y="0" width="900" height="600" fill="#ffffff"></rect><defs><linearGradient id="grad1_0" x1="33.3%" y1="100%" x2="100%" y2="0%"><stop offset="20%" stop-color="#ffffff" stop-opacity="1"></stop><stop offset="80%" stop-color="#ffffff" stop-opacity="1"></stop></linearGradient></defs><defs><linearGradient id="grad2_0" x1="0%" y1="100%" x2="66.7%" y2="0%"><stop offset="20%" stop-color="#ffffff" stop-opacity="1"></stop><stop offset="80%" stop-color="#ffffff" stop-opacity="1"></stop></linearGradient></defs><g transform="translate(900, 600)"><path d="M-324.5 0C-325.9 -37 -327.4 -74 -308.6 -100.3C-289.9 -126.6 -250.9 -142.2 -225.7 -164C-200.5 -185.7 -189.2 -213.6 -168.7 -232.2C-148.2 -250.8 -118.6 -260.1 -89 -273.9C-59.4 -287.7 -29.7 -306.1 0 -324.5L0 0Z" fill="#332c65"></path></g><g transform="translate(0, 0)"><path d="M324.5 0C319.9 33.7 315.4 67.4 305.3 99.2C295.2 131 279.6 160.8 260.5 189.3C241.4 217.7 218.7 244.7 190.7 262.5C162.7 280.3 129.4 288.9 96.7 297.7C64 306.5 32 315.5 0 324.5L0 0Z" fill="#332c65"></path></g></svg>