<svg xmlns="http://www.w3.org/2000/svg" version="1.1" xmlns:xlink="http://www.w3.org/1999/xlink" xmlns:svgjs="http://svgjs.com/svgjs" width="1440" height="560" preserveAspectRatio="none" viewBox="0 0 1440 560"><g mask="url(&quot;#SvgjsMask1013&quot;)" fill="none"><path d="M157 633.3C346.82 624.96 496.8 305.14 842.32 304.77 1187.84 304.4 1352.19 455.08 1527.64 455.97" stroke="rgba(47, 25, 187, 0.6)" stroke-width="2"></path><path d="M337.94 580.82C509 569.01 609.56 250.29 933 239.75 1256.43 229.21 1373.48 73.35 1528.05 71.75" stroke="rgba(47, 25, 187, 0.6)" stroke-width="2"></path><path d="M267.63 634.07C451.52 629.18 584.06 372.42 951.62 362.76 1319.17 353.1 1451.93 98.73 1635.6 93.96" stroke="rgba(47, 25, 187, 0.6)" stroke-width="2"></path><path d="M821.03 571.83C915.39 541.36 879.45 269.07 1075.78 267.85 1272.11 266.63 1454.24 390.18 1585.28 391.05" stroke="rgba(47, 25, 187, 0.6)" stroke-width="2"></path><path d="M445.75 627.72C616.11 624.21 747.62 402.41 1086.78 396.17 1425.94 389.93 1558.98 186.13 1727.81 183.37" stroke="rgba(47, 25, 187, 0.6)" stroke-width="2"></path></g><defs><mask id="SvgjsMask1013"><rect width="1440" height="560" fill="#ffffff"></rect></mask></defs></svg>