<svg id="visual" viewBox="0 0 900 450" width="900" height="450" xmlns="http://www.w3.org/2000/svg" xmlns:xlink="http://www.w3.org/1999/xlink" version="1.1"><rect x="0" y="0" width="900" height="450" fill="#ffffff"></rect><defs><linearGradient id="grad1_0" x1="50%" y1="100%" x2="100%" y2="0%"><stop offset="10%" stop-color="#280e4f" stop-opacity="1"></stop><stop offset="90%" stop-color="#280e4f" stop-opacity="1"></stop></linearGradient></defs><defs><linearGradient id="grad1_1" x1="50%" y1="100%" x2="100%" y2="0%"><stop offset="10%" stop-color="#280e4f" stop-opacity="1"></stop><stop offset="90%" stop-color="#ffffff" stop-opacity="1"></stop></linearGradient></defs><defs><linearGradient id="grad2_0" x1="0%" y1="100%" x2="50%" y2="0%"><stop offset="10%" stop-color="#280e4f" stop-opacity="1"></stop><stop offset="90%" stop-color="#280e4f" stop-opacity="1"></stop></linearGradient></defs><defs><linearGradient id="grad2_1" x1="0%" y1="100%" x2="50%" y2="0%"><stop offset="10%" stop-color="#ffffff" stop-opacity="1"></stop><stop offset="90%" stop-color="#280e4f" stop-opacity="1"></stop></linearGradient></defs><g transform="translate(900, 450)"><path d="M-270 0C-267.1 -28 -264.1 -55.9 -254.9 -82.8C-245.6 -109.7 -230.1 -135.6 -208.7 -151.6C-187.4 -167.7 -160.3 -174 -139.9 -192.5C-119.5 -211.1 -105.6 -241.8 -83.4 -256.8C-61.2 -271.7 -30.6 -270.9 0 -270L0 0Z" fill="#917ea4"></path><path d="M-135 0C-133.5 -14 -132.1 -28 -127.4 -41.4C-122.8 -54.9 -115 -67.8 -104.4 -75.8C-93.7 -83.9 -80.2 -87 -69.9 -96.3C-59.7 -105.5 -52.8 -120.9 -41.7 -128.4C-30.6 -135.9 -15.3 -135.4 0 -135L0 0Z" fill="#280e4f"></path></g><g transform="translate(0, 0)"><path d="M270 0C259 25.3 247.9 50.6 241.6 78.5C235.2 106.4 233.6 137 218.4 158.7C203.2 180.4 174.5 193.1 149.3 205.5C124.1 217.9 102.5 229.9 78.2 240.6C53.9 251.3 26.9 260.7 0 270L0 0Z" fill="#917ea4"></path><path d="M135 0C129.5 12.6 124 25.3 120.8 39.2C117.6 53.2 116.8 68.5 109.2 79.4C101.6 90.2 87.2 96.6 74.6 102.7C62.1 108.9 51.2 115 39.1 120.3C26.9 125.7 13.5 130.3 0 135L0 0Z" fill="#280e4f"></path></g></svg>