<svg style="object-fit:cover" id="my-svg" version="1" baseProfile="full" width="100%" height="100%" viewBox="0 0 1560 759" xmlns="http://www.w3.org/2000/svg"><rect width="1560" height="759" fill="#ffffff"/><defs><linearGradient id="linear-gradient" x1="0" x2="1" y1="0" y2="1"><stop offset="0%" stop-color="#75399d70"/><stop offset="100%" stop-color="#52529070"/></linearGradient></defs><path transform="scale(-1, 1)" style="transform-origin:center" d="M 0,759 V 0,303 C 331,252.5 662,202 922,202 C 1182,202 1371,252.5 1560,303 C 1560,303 1560,759 1560,759 Z" stroke="none" stroke-width="0" fill="url(#linear-gradient)" class="transition-all duration-300 ease-in-out delay-150"/><defs><linearGradient id="linear-gradient" x1="0" x2="1" y1="0" y2="1"><stop offset="0%" stop-color="#75399d80"/><stop offset="100%" stop-color="#52529080"/></linearGradient></defs><path transform="scale(-1, 1)" d="M 0,759 V 0,455 C 317,449.5 634,444 894,444 C 1154,444 1357,449.5 1560,455 C 1560,455 1560,759 1560,759 Z" stroke="none" stroke-width="0" fill="url(#linear-gradient)" class="transition-all duration-300 ease-in-out delay-150" style="transform-origin: center center;"/><defs><linearGradient id="linear-gradient" x1="0" x2="1" y1="0" y2="1"><stop offset="0%" stop-color="#75399d90"/><stop offset="100%" stop-color="#52529090"/></linearGradient></defs><path transform="scale(-1, 1)" d="M 0,759 V 0,683 C 256.5,664.5 513,646 773,646 C 1033,646 1296.5,664.5 1560,683 C 1560,683 1560,759 1560,759 Z" stroke="none" stroke-width="0" fill="url(#linear-gradient)" class="transition-all duration-300 ease-in-out delay-150" style="transform-origin: center center;"/><defs><linearGradient id="linear-gradient" x1="0" x2="1" y1="0" y2="1"><stop offset="0%" stop-color="#75399dff"/><stop offset="100%" stop-color="#525290ff"/></linearGradient></defs><path transform="scale(-1, 1)" d="M 0,759 V 0,1024 C 272.5,1062 545,1100 805,1100 C 1065,1100 1312.5,1062 1560,1024 C 1560,1024 1560,759 1560,759 Z" stroke="none" stroke-width="0" fill="url(#linear-gradient)" class="transition-all duration-300 ease-in-out delay-150" style="transform-origin: center center;"/></svg>