<svg style="object-fit:cover" id="my-svg" version="1" baseProfile="full" width="100%" height="100%" viewBox="0 0 1560 759" xmlns="http://www.w3.org/2000/svg"><rect width="1560" height="759" fill="#ffffff"/><defs><linearGradient id="linear-gradient" x1="0" x2="1" y1="0" y2="1"><stop offset="0%" stop-color="#75399d70"/><stop offset="100%" stop-color="#52529070"/></linearGradient></defs><path transform="scale(-1, 1)" style="transform-origin:center" d="M 0,759 V 0,531 C 243.5,519 487,507 747,507 C 1007,507 1283.5,519 1560,531 C 1560,531 1560,759 1560,759 Z" stroke="none" stroke-width="0" fill="url(#linear-gradient)" class="transition-all duration-300 ease-in-out delay-150"/><defs><linearGradient id="linear-gradient" x1="0" x2="1" y1="0" y2="1"><stop offset="0%" stop-color="#75399d80"/><stop offset="100%" stop-color="#52529080"/></linearGradient></defs><path transform="scale(-1, 1)" d="M 0,759 V 0,796 C 201.5,867 403,938 663,938 C 923,938 1241.5,867 1560,796 C 1560,796 1560,759 1560,759 Z" stroke="none" stroke-width="0" fill="url(#linear-gradient)" class="transition-all duration-300 ease-in-out delay-150" style="transform-origin: center center;"/><defs><linearGradient id="linear-gradient" x1="0" x2="1" y1="0" y2="1"><stop offset="0%" stop-color="#75399d90"/><stop offset="100%" stop-color="#52529090"/></linearGradient></defs><path transform="scale(-1, 1)" d="M 0,759 V 0,1195 C 201,1228 402,1261 662,1261 C 922,1261 1241,1228 1560,1195 C 1560,1195 1560,759 1560,759 Z" stroke="none" stroke-width="0" fill="url(#linear-gradient)" class="transition-all duration-300 ease-in-out delay-150" style="transform-origin: center center;"/><defs><linearGradient id="linear-gradient" x1="0" x2="1" y1="0" y2="1"><stop offset="0%" stop-color="#75399dff"/><stop offset="100%" stop-color="#525290ff"/></linearGradient></defs><path transform="scale(-1, 1)" d="M 0,759 V 0,1793 C 229,1871 458,1949 718,1949 C 978,1949 1269,1871 1560,1793 C 1560,1793 1560,759 1560,759 Z" stroke="none" stroke-width="0" fill="url(#linear-gradient)" class="transition-all duration-300 ease-in-out delay-150" style="transform-origin: center center;"/></svg>