<svg style="object-fit:cover" id="my-svg" version="1" baseProfile="full" width="100%" height="100%" viewBox="0 0 1560 759" xmlns="http://www.w3.org/2000/svg"><rect width="1560" height="759" fill="#ffffff"/><defs><linearGradient id="linear-gradient" x1="0" x2="1" y1="0" y2="1"><stop offset="0%" stop-color="#75399d80"/><stop offset="100%" stop-color="#52529080"/></linearGradient></defs><path transform="scale(-1, 1)" style="transform-origin:center" d="M 0,759 V 0,531 C 328,560.5 656,590 916,590 C 1176,590 1368,560.5 1560,531 C 1560,531 1560,759 1560,759 Z" stroke="none" stroke-width="0" fill="url(#linear-gradient)" class="transition-all duration-300 ease-in-out delay-150"/><defs><linearGradient id="linear-gradient" x1="0" x2="1" y1="0" y2="1"><stop offset="0%" stop-color="#75399d90"/><stop offset="100%" stop-color="#52529090"/></linearGradient></defs><path transform="scale(-1, 1)" d="M 0,759 V 0,796 C 208,825 416,854 676,854 C 936,854 1248,825 1560,796 C 1560,796 1560,759 1560,759 Z" stroke="none" stroke-width="0" fill="url(#linear-gradient)" class="transition-all duration-300 ease-in-out delay-150" style="transform-origin: center center;"/><defs><linearGradient id="linear-gradient" x1="0" x2="1" y1="0" y2="1"><stop offset="0%" stop-color="#75399dff"/><stop offset="100%" stop-color="#525290ff"/></linearGradient></defs><path transform="scale(-1, 1)" d="M 0,759 V 0,1195 C 214,1258 428,1321 688,1321 C 948,1321 1254,1258 1560,1195 C 1560,1195 1560,759 1560,759 Z" stroke="none" stroke-width="0" fill="url(#linear-gradient)" class="transition-all duration-300 ease-in-out delay-150" style="transform-origin: center center;"/></svg>