<svg style="object-fit:cover" id="my-svg" version="1" baseProfile="full" width="100%" height="100%" viewBox="0 0 1560 759" xmlns="http://www.w3.org/2000/svg"><rect width="1560" height="759" fill="#ffffff"/><defs><linearGradient id="linear-gradient" x1="0" x2="1" y1="0" y2="1"><stop offset="0%" stop-color="#75399d70"/><stop offset="100%" stop-color="#52529070"/></linearGradient></defs><path transform="scale(-1, 1)" style="transform-origin:center" d="M 0,759 V 0,531 C 317.5,484 635,437 895,437 C 1155,437 1357.5,484 1560,531 C 1560,531 1560,759 1560,759 Z" stroke="none" stroke-width="0" fill="url(#linear-gradient)" class="transition-all duration-300 ease-in-out delay-150"/><defs><linearGradient id="linear-gradient" x1="0" x2="1" y1="0" y2="1"><stop offset="0%" stop-color="#75399d80"/><stop offset="100%" stop-color="#52529080"/></linearGradient></defs><path transform="scale(-1, 1)" d="M 0,759 V 0,796 C 220.5,875.5 441,955 701,955 C 961,955 1260.5,875.5 1560,796 C 1560,796 1560,759 1560,759 Z" stroke="none" stroke-width="0" fill="url(#linear-gradient)" class="transition-all duration-300 ease-in-out delay-150" style="transform-origin: center center;"/><defs><linearGradient id="linear-gradient" x1="0" x2="1" y1="0" y2="1"><stop offset="0%" stop-color="#75399d90"/><stop offset="100%" stop-color="#52529090"/></linearGradient></defs><path transform="scale(-1, 1)" d="M 0,759 V 0,1195 C 232.5,1123.5 465,1052 725,1052 C 985,1052 1272.5,1123.5 1560,1195 C 1560,1195 1560,759 1560,759 Z" stroke="none" stroke-width="0" fill="url(#linear-gradient)" class="transition-all duration-300 ease-in-out delay-150" style="transform-origin: center center;"/><defs><linearGradient id="linear-gradient" x1="0" x2="1" y1="0" y2="1"><stop offset="0%" stop-color="#75399dff"/><stop offset="100%" stop-color="#525290ff"/></linearGradient></defs><path transform="scale(-1, 1)" d="M 0,759 V 0,1793 C 197,1730.5 394,1668 654,1668 C 914,1668 1237,1730.5 1560,1793 C 1560,1793 1560,759 1560,759 Z" stroke="none" stroke-width="0" fill="url(#linear-gradient)" class="transition-all duration-300 ease-in-out delay-150" style="transform-origin: center center;"/></svg>