<svg xmlns="http://www.w3.org/2000/svg" version="1.1" xmlns:xlink="http://www.w3.org/1999/xlink" xmlns:svgjs="http://svgjs.com/svgjs" width="1440" height="560" preserveAspectRatio="none" viewBox="0 0 1440 560"><g mask="url(&quot;#SvgjsMask1029&quot;)" fill="none"><path d="M1268 487L1267 740" stroke-width="10" stroke="url(#SvgjsLinearGradient1030)" stroke-linecap="round" class="Down"></path><path d="M423 523L422 764" stroke-width="10" stroke="url(#SvgjsLinearGradient1031)" stroke-linecap="round" class="Up"></path><path d="M359 485L358 262" stroke-width="8" stroke="url(#SvgjsLinearGradient1030)" stroke-linecap="round" class="Down"></path><path d="M113 527L112 351" stroke-width="10" stroke="url(#SvgjsLinearGradient1030)" stroke-linecap="round" class="Down"></path><path d="M449 72L448 -119" stroke-width="10" stroke="url(#SvgjsLinearGradient1030)" stroke-linecap="round" class="Down"></path><path d="M707 253L706 -101" stroke-width="8" stroke="url(#SvgjsLinearGradient1030)" stroke-linecap="round" class="Down"></path><path d="M365 410L364 94" stroke-width="6" stroke="url(#SvgjsLinearGradient1031)" stroke-linecap="round" class="Up"></path><path d="M811 432L810 732" stroke-width="8" stroke="url(#SvgjsLinearGradient1031)" stroke-linecap="round" class="Up"></path><path d="M1048 309L1047 80" stroke-width="10" stroke="url(#SvgjsLinearGradient1030)" stroke-linecap="round" class="Down"></path><path d="M1 433L0 19" stroke-width="10" stroke="url(#SvgjsLinearGradient1030)" stroke-linecap="round" class="Down"></path><path d="M1261 419L1260 127" stroke-width="8" stroke="url(#SvgjsLinearGradient1031)" stroke-linecap="round" class="Up"></path><path d="M818 308L817 135" stroke-width="8" stroke="url(#SvgjsLinearGradient1031)" stroke-linecap="round" class="Up"></path><path d="M701 496L700 860" stroke-width="8" stroke="url(#SvgjsLinearGradient1030)" stroke-linecap="round" class="Down"></path><path d="M1218 431L1217 654" stroke-width="8" stroke="url(#SvgjsLinearGradient1031)" stroke-linecap="round" class="Up"></path><path d="M939 115L938 297" stroke-width="6" stroke="url(#SvgjsLinearGradient1031)" stroke-linecap="round" class="Up"></path><path d="M1302 397L1301 92" stroke-width="8" stroke="url(#SvgjsLinearGradient1030)" stroke-linecap="round" class="Down"></path><path d="M606 552L605 255" stroke-width="10" stroke="url(#SvgjsLinearGradient1030)" stroke-linecap="round" class="Down"></path><path d="M171 134L170 274" stroke-width="6" stroke="url(#SvgjsLinearGradient1031)" stroke-linecap="round" class="Up"></path><path d="M687 551L686 320" stroke-width="8" stroke="url(#SvgjsLinearGradient1031)" stroke-linecap="round" class="Up"></path><path d="M823 71L822 429" stroke-width="8" stroke="url(#SvgjsLinearGradient1031)" stroke-linecap="round" class="Up"></path><path d="M425 395L424 32" stroke-width="10" stroke="url(#SvgjsLinearGradient1030)" stroke-linecap="round" class="Down"></path><path d="M695 197L694 485" stroke-width="10" stroke="url(#SvgjsLinearGradient1031)" stroke-linecap="round" class="Up"></path><path d="M1041 158L1040 -45" stroke-width="8" stroke="url(#SvgjsLinearGradient1030)" stroke-linecap="round" class="Down"></path><path d="M587 458L586 823" stroke-width="8" stroke="url(#SvgjsLinearGradient1031)" stroke-linecap="round" class="Up"></path><path d="M1214 246L1213 429" stroke-width="8" stroke="url(#SvgjsLinearGradient1031)" stroke-linecap="round" class="Up"></path><path d="M904 231L903 399" stroke-width="10" stroke="url(#SvgjsLinearGradient1031)" stroke-linecap="round" class="Up"></path><path d="M1204 231L1203 585" stroke-width="6" stroke="url(#SvgjsLinearGradient1031)" stroke-linecap="round" class="Up"></path><path d="M665 317L664 -1" stroke-width="8" stroke="url(#SvgjsLinearGradient1030)" stroke-linecap="round" class="Down"></path><path d="M164 179L163 424" stroke-width="10" stroke="url(#SvgjsLinearGradient1031)" stroke-linecap="round" class="Up"></path><path d="M601 474L600 285" stroke-width="8" stroke="url(#SvgjsLinearGradient1030)" stroke-linecap="round" class="Down"></path><path d="M1148 158L1147 382" stroke-width="6" stroke="url(#SvgjsLinearGradient1031)" stroke-linecap="round" class="Up"></path><path d="M240 198L239 581" stroke-width="6" stroke="url(#SvgjsLinearGradient1031)" stroke-linecap="round" class="Up"></path><path d="M771 492L770 708" stroke-width="10" stroke="url(#SvgjsLinearGradient1031)" stroke-linecap="round" class="Up"></path><path d="M357 276L356 472" stroke-width="8" stroke="url(#SvgjsLinearGradient1031)" stroke-linecap="round" class="Up"></path><path d="M54 443L53 729" stroke-width="10" stroke="url(#SvgjsLinearGradient1030)" stroke-linecap="round" class="Down"></path><path d="M851 484L850 77" stroke-width="10" stroke="url(#SvgjsLinearGradient1030)" stroke-linecap="round" class="Down"></path></g><defs><mask id="SvgjsMask1029"><rect width="1440" height="560" fill="#ffffff"></rect></mask><linearGradient x1="0%" y1="0%" x2="0%" y2="100%" id="SvgjsLinearGradient1030"><stop stop-color="rgba(66, 31, 127, 0)" offset="0"></stop><stop stop-color="rgba(66, 31, 127, 1)" offset="1"></stop></linearGradient><linearGradient x1="0%" y1="100%" x2="0%" y2="0%" id="SvgjsLinearGradient1031"><stop stop-color="rgba(66, 31, 127, 0)" offset="0"></stop><stop stop-color="rgba(66, 31, 127, 1)" offset="1"></stop></linearGradient></defs></svg>