<svg style="object-fit:cover" id="my-svg" version="1" baseProfile="full" width="100%" height="100%" viewBox="0 0 1560 759" xmlns="http://www.w3.org/2000/svg"><rect width="1560" height="759" fill="#f7f7f7"/><defs><linearGradient id="linear-gradient" x1="0" x2="1" y1="0" y2="1"><stop offset="0%" stop-color="#75399d80"/><stop offset="100%" stop-color="#52519080"/></linearGradient></defs><path transform="scale(1, 1)" d="M 0,759 V 0,379 L 760,447 L 1560,379 C 1560,379 1560,759 1560,759 Z" stroke="none" stroke-width="0" fill="url(#linear-gradient)" class="transition-all duration-300 ease-in-out delay-150" style="transform-origin: center center;"/><defs><linearGradient id="linear-gradient" x1="0" x2="1" y1="0" y2="1"><stop offset="0%" stop-color="#75399d90"/><stop offset="100%" stop-color="#52519090"/></linearGradient></defs><path transform="scale(1, 1)" d="M 0,759 V 0,569 L 810,630 L 1560,569 C 1560,569 1560,759 1560,759 Z" stroke="none" stroke-width="0" fill="url(#linear-gradient)" class="transition-all duration-300 ease-in-out delay-150" style="transform-origin: center center;"/><defs><linearGradient id="linear-gradient" x1="0" x2="1" y1="0" y2="1"><stop offset="0%" stop-color="#75399dff"/><stop offset="100%" stop-color="#525190ff"/></linearGradient></defs><path transform="scale(1, 1)" d="M 0,759 V 0,853 L 775,769 L 1560,853 C 1560,853 1560,759 1560,759 Z" stroke="none" stroke-width="0" fill="url(#linear-gradient)" class="transition-all duration-300 ease-in-out delay-150" style="transform-origin: center center;"/></svg>