<svg xmlns="http://www.w3.org/2000/svg" version="1.1" xmlns:xlink="http://www.w3.org/1999/xlink" xmlns:svgjs="http://svgjs.com/svgjs" width="1440" height="560" preserveAspectRatio="none" viewBox="0 0 1440 560"><g mask="url(&quot;#SvgjsMask1318&quot;)" fill="none"><rect width="1440" height="560" x="0" y="0" fill="url(#SvgjsLinearGradient1319)"></rect><path d="M1440 0L1380.4 0L1440 245.88z" fill="rgba(255, 255, 255, .1)"></path><path d="M1380.4 0L1440 245.88L1440 371.05L1226.8300000000002 0z" fill="rgba(255, 255, 255, .075)"></path><path d="M1226.83 0L1440 371.05L1440 404.38L473.9599999999999 0z" fill="rgba(255, 255, 255, .05)"></path><path d="M473.96000000000004 0L1440 404.38L1440 423.53L298.13 0z" fill="rgba(255, 255, 255, .025)"></path><path d="M0 560L72.3 560L0 382.11z" fill="rgba(0, 0, 0, .1)"></path><path d="M0 382.11L72.3 560L647.8499999999999 560L0 247.62z" fill="rgba(0, 0, 0, .075)"></path><path d="M0 247.62L647.8499999999999 560L743.78 560L0 191.89000000000001z" fill="rgba(0, 0, 0, .05)"></path><path d="M0 191.89L743.78 560L826.54 560L0 137.29999999999998z" fill="rgba(0, 0, 0, .025)"></path></g><defs><mask id="SvgjsMask1318"><rect width="1440" height="560" fill="#ffffff"></rect></mask><linearGradient x1="15.28%" y1="-39.29%" x2="84.72%" y2="139.29%" gradientUnits="userSpaceOnUse" id="SvgjsLinearGradient1319"><stop stop-color="rgba(43, 38, 71, 1)" offset="0"></stop><stop stop-color="rgba(171, 174, 177, 1)" offset="1"></stop></linearGradient></defs></svg>