<svg id="visual" viewBox="0 0 960 540" width="960" height="540" xmlns="http://www.w3.org/2000/svg" xmlns:xlink="http://www.w3.org/1999/xlink" version="1.1"><path d="M767 540L623 473L633 405L796 338L709 270L546 203L623 135L729 68L508 0L960 0L960 68L960 135L960 203L960 270L960 338L960 405L960 473L960 540Z" fill="#ffffff"></path><path d="M623 540L517 473L479 405L498 338L460 270L373 203L421 135L489 68L402 0L509 0L730 68L624 135L547 203L710 270L797 338L634 405L624 473L768 540Z" fill="#b0a6b7"></path><path d="M498 540L441 473L325 405L364 338L277 270L191 203L239 135L354 68L249 0L403 0L490 68L422 135L374 203L461 270L499 338L480 405L518 473L624 540Z" fill="#675473"></path><path d="M0 540L0 473L0 405L0 338L0 270L0 203L0 135L0 68L0 0L250 0L355 68L240 135L192 203L278 270L365 338L326 405L442 473L499 540Z" fill="#230c35"></path></svg>